<?xml version="1.0" standalone="no"?>
<!DOCTYPE svg PUBLIC "-//W3C//DTD SVG 20010904//EN"
 "http://www.w3.org/TR/2001/REC-SVG-20010904/DTD/svg10.dtd">
<svg version="1.0" xmlns="http://www.w3.org/2000/svg"
 width="1000.000000pt" height="667.000000pt" viewBox="0 0 1000.000000 667.000000"
 preserveAspectRatio="xMidYMid meet">

<g transform="translate(0.000000,667.000000) scale(0.100000,-0.100000)"
fill="#000000" stroke="none">
<path d="M0 3335 l0 -3335 805 0 c443 0 805 2 805 4 0 3 -5 17 -10 32 -22 58
12 107 75 107 42 -1 66 -30 59 -72 -4 -20 -13 -40 -20 -44 -8 -4 -14 -12 -14
-17 0 -6 261 -10 691 -10 l692 0 -7 82 c-15 191 -77 531 -109 598 -26 56 -99
135 -148 160 -19 10 -40 25 -46 32 -12 14 -43 94 -46 118 -1 8 -6 18 -12 22
-24 17 9 14 127 -12 341 -78 710 -96 1103 -54 237 25 438 77 644 167 77 33 97
38 112 29 34 -21 65 -14 103 25 20 21 36 46 36 56 0 16 2 17 15 7 13 -11 14
-10 9 4 -3 9 -1 16 5 16 6 0 11 -4 11 -10 0 -5 15 -10 34 -10 19 0 37 -4 40
-8 6 -11 246 -15 246 -4 0 5 -37 14 -83 20 -105 14 -149 23 -162 32 -22 16
-68 21 -76 8 -5 -7 -9 -8 -9 -3 0 6 4 15 8 21 10 16 75 49 87 44 26 -9 141
-21 253 -26 87 -4 167 -1 270 11 198 24 296 24 347 2 36 -17 38 -20 23 -31
-10 -7 -18 -18 -18 -24 0 -14 -24 -22 -68 -23 -20 0 -55 -9 -77 -20 l-40 -19
70 5 c116 8 141 11 171 22 16 6 63 17 104 23 41 7 97 21 124 32 39 15 62 18
117 12 91 -9 114 -1 144 46 13 21 45 62 70 90 32 36 45 59 45 80 0 25 -4 30
-23 30 -52 0 -109 44 -121 92 -3 15 -22 39 -42 54 -41 32 -64 71 -64 111 0 15
-11 52 -25 81 -14 30 -25 71 -25 91 0 21 -11 66 -25 102 -14 35 -23 73 -21 84
5 19 -10 76 -27 102 -9 14 -48 18 -45 5 0 -4 -2 -14 -6 -23 -4 -9 -2 -36 5
-60 6 -24 14 -81 18 -125 4 -57 11 -88 24 -101 12 -14 17 -37 17 -82 0 -61 10
-92 37 -119 30 -30 8 -61 -61 -87 -44 -16 -61 -17 -180 -6 -72 6 -220 16 -328
21 -108 6 -208 14 -221 19 -38 15 -121 81 -130 104 -5 13 -2 26 8 37 8 9 15
24 15 34 0 9 5 26 11 37 7 14 7 30 -1 54 -9 26 -8 43 1 69 10 28 10 41 -2 73
-8 21 -21 38 -29 38 -22 0 -40 -44 -40 -98 0 -26 -4 -55 -9 -65 -21 -41 -51
-120 -61 -161 -12 -47 -52 -90 -85 -91 -11 0 -31 -7 -45 -15 -18 -10 -60 -14
-149 -15 -114 0 -125 2 -142 22 -21 23 -24 32 -10 23 13 -8 31 27 31 60 0 37
-35 96 -70 120 l-28 19 25 23 c25 24 26 32 7 96 -3 9 -1 17 5 17 6 0 11 4 11
10 0 5 14 31 30 57 17 26 30 60 30 77 0 18 14 50 36 82 20 28 34 60 32 70 -4
23 -47 39 -82 30 -22 -5 -26 -12 -26 -45 0 -66 -10 -98 -36 -110 -14 -6 -29
-21 -34 -33 -8 -21 -9 -21 -9 -3 -1 29 -34 74 -68 94 -22 14 -29 26 -31 56 -2
21 -5 42 -8 47 -3 4 -1 8 5 8 5 0 12 -6 15 -12 3 -7 3 0 0 17 -6 34 -21 55
-39 55 -6 0 -20 10 -31 22 -12 14 -14 19 -4 13 8 -4 0 5 -18 21 -30 27 -32 31
-22 64 14 50 13 56 -20 94 -18 20 -26 37 -20 41 5 3 10 33 10 65 0 51 -4 63
-26 83 -22 21 -24 28 -15 45 6 11 11 30 11 42 0 36 -32 120 -45 120 -7 0 -15
7 -18 14 -4 11 -1 13 10 9 14 -5 15 -1 10 31 -3 22 -2 34 4 31 5 -4 9 5 9 19
0 24 -14 41 -34 41 -5 0 -10 9 -12 20 -2 11 -12 26 -23 34 -12 7 -21 18 -21
24 0 5 8 2 19 -7 17 -16 19 -16 25 6 9 35 7 50 -6 42 -8 -5 -9 0 -5 17 4 15 0
30 -10 41 -9 10 -12 18 -7 18 16 0 34 -23 35 -44 1 -15 3 -16 6 -5 8 32 -14
66 -49 73 -18 4 -28 10 -23 14 15 10 19 146 6 171 -7 12 -21 21 -31 21 -24 0
-25 6 -5 26 8 9 15 33 15 56 0 33 -6 45 -35 70 l-34 31 5 84 c6 94 0 133 -20
133 -7 0 -19 7 -26 15 -11 13 -10 14 3 10 11 -5 17 3 22 34 8 47 0 78 -27 108
-18 19 -19 30 -13 78 7 56 -7 125 -26 125 -13 0 -11 33 7 100 14 50 15 66 4
104 -8 28 -20 48 -31 51 -20 7 -26 25 -9 25 16 0 12 95 -6 139 -8 22 -24 41
-35 44 -10 3 -19 10 -19 16 0 6 7 8 15 5 38 -15 5 115 -34 136 -20 10 -30 40
-13 40 11 0 32 61 32 94 0 35 -26 85 -56 109 -27 21 -31 37 -9 37 11 0 15 12
15 44 0 55 -15 96 -34 96 -8 0 -18 9 -21 20 -3 11 -10 20 -15 20 -4 0 -11 7
-14 16 -5 12 -1 14 15 9 19 -6 20 -4 15 37 -6 52 1 40 -46 73 -22 15 -40 34
-40 42 0 8 4 12 9 8 15 -9 93 49 140 106 41 48 44 54 33 81 -9 24 -7 35 8 61
10 18 28 65 41 105 l24 74 46 -6 c38 -5 56 -2 96 19 60 31 85 25 144 -35 53
-54 78 -69 139 -85 44 -12 59 -11 103 1 119 33 118 34 191 -38 57 -56 73 -66
123 -77 88 -20 112 -31 139 -66 18 -24 24 -44 24 -81 0 -31 7 -61 20 -82 l20
-33 88 6 c86 7 87 7 125 48 92 100 101 107 165 128 35 12 78 34 95 49 18 15
49 33 70 40 45 14 45 22 7 124 -20 55 -21 71 -14 191 8 157 3 174 -53 170 -21
-1 -49 -5 -63 -9 -20 -5 -33 1 -62 28 -20 18 -51 39 -68 46 -50 21 -54 100 -5
100 13 0 29 8 34 18 6 9 11 13 11 8 0 -5 6 -3 14 3 7 6 24 10 37 9 20 -3 24 2
27 30 l3 32 -60 0 c-56 0 -61 -2 -67 -24 -9 -37 -38 -58 -83 -60 -66 -3 -71
-17 -32 -89 38 -70 38 -101 1 -129 -25 -18 -26 -18 -69 2 -32 16 -47 32 -61
63 -10 23 -28 52 -39 64 -24 26 -27 76 -6 113 8 14 14 33 15 43 0 16 -17 17
-225 17 l-225 0 0 -22 c0 -13 -7 -31 -15 -42 -14 -19 -24 -19 -97 0 -22 5 -28
3 -28 -9 0 -27 -30 -49 -59 -42 -57 14 -78 60 -44 97 16 17 5 18 -305 18 -315
0 -320 0 -315 -20 4 -14 0 -20 -12 -20 -12 0 -16 6 -12 20 5 19 0 20 -149 20
-145 0 -187 -8 -131 -26 38 -12 100 -55 91 -64 -13 -12 -165 62 -159 78 3 9
-15 12 -70 12 -57 0 -75 -3 -75 -14 0 -8 -9 -33 -20 -57 -11 -24 -20 -64 -20
-87 0 -31 -10 -63 -35 -108 -50 -90 -79 -218 -72 -314 13 -171 108 -326 242
-396 67 -35 72 -40 52 -62 -9 -10 -17 -28 -17 -39 0 -11 -9 -30 -20 -43 -15
-18 -18 -33 -15 -79 2 -31 9 -71 15 -89 11 -30 10 -36 -11 -58 -21 -22 -24
-34 -22 -93 1 -37 7 -80 13 -95 18 -49 12 -93 -16 -121 -23 -23 -26 -33 -21
-68 4 -27 1 -51 -8 -67 -8 -14 -14 -54 -15 -90 0 -58 -3 -69 -29 -96 -47 -50
-61 -87 -61 -163 0 -58 -4 -76 -25 -107 -28 -41 -35 -127 -14 -167 9 -16 9
-22 0 -25 -34 -11 -53 -118 -31 -177 7 -19 6 -32 -5 -48 -7 -12 -17 -41 -21
-64 -5 -35 -2 -50 20 -87 22 -38 24 -45 11 -56 -21 -17 -20 -109 1 -138 11
-16 14 -32 9 -50 -3 -15 -7 -55 -8 -89 -2 -56 -5 -65 -36 -97 -32 -33 -34 -39
-35 -110 -1 -66 -4 -78 -23 -91 -36 -25 -46 -54 -44 -121 2 -58 0 -64 -33
-100 -20 -22 -36 -43 -37 -49 -6 -47 -4 -123 3 -113 4 7 8 8 8 2 0 -5 -14 -23
-31 -40 -38 -36 -51 -58 -59 -106 -5 -25 -4 -35 3 -31 7 4 8 -6 3 -27 -4 -20
-19 -45 -39 -61 -32 -27 -32 -28 -29 -106 l2 -79 -39 -26 -40 -26 0 26 c0 15
-3 52 -7 83 -4 38 -1 80 11 133 22 97 16 137 -40 277 -42 106 -98 202 -153
264 -55 61 -93 198 -72 260 6 19 15 35 18 35 4 0 23 10 42 22 46 29 98 48 134
48 51 0 109 36 141 87 32 52 32 43 26 373 -1 25 -6 70 -11 100 -16 81 -24 177
-23 247 1 65 11 89 97 228 20 33 39 77 43 98 3 20 10 40 14 43 5 3 9 37 9 76
0 38 10 116 21 171 28 134 27 202 -6 312 -15 50 -34 123 -42 164 -15 80 -47
136 -97 174 -39 30 -122 67 -150 67 -38 0 -122 35 -180 75 -31 21 -56 42 -56
46 0 6 -60 47 -85 58 -5 2 -46 31 -90 64 -106 79 -207 179 -312 307 -115 140
-144 170 -238 250 -44 37 -119 106 -168 154 l-87 86 -735 0 -735 0 0 -3335z
m3334 3280 c-4 -8 -10 -15 -14 -15 -5 0 -16 -3 -26 -7 -12 -4 -15 -2 -12 8 2
7 15 16 29 20 13 4 25 7 26 8 1 1 0 -6 -3 -14z m697 -215 c21 0 24 -11 9 -26
-8 -8 -8 -19 0 -38 5 -15 10 -39 10 -54 -1 -26 -1 -26 -16 -7 -14 18 -55 141
-53 161 0 5 7 -1 16 -13 8 -13 24 -23 34 -23z m499 2 c18 -15 21 -24 15 -50
-12 -55 -100 -106 -143 -83 -48 25 -25 98 41 130 51 26 59 26 87 3z m-1120
-142 c43 -22 186 -52 242 -50 42 1 52 -9 39 -42 -5 -13 -12 -35 -15 -50 -4
-16 -13 -28 -21 -28 -8 0 -15 -9 -15 -19 0 -31 48 -80 90 -92 77 -23 180 29
218 110 l16 36 4 -44 c2 -29 -4 -62 -19 -99 -16 -38 -19 -59 -13 -70 8 -12 -3
-28 -51 -72 -75 -70 -96 -78 -131 -51 -31 24 -49 19 -63 -20 -12 -34 -17 -35
-56 -9 -36 24 -58 25 -75 5 -18 -21 -56 -15 -52 8 3 20 4 20 -37 6 -17 -6 -31
-15 -31 -20 0 -34 -100 27 -153 94 -19 23 -47 78 -63 122 -24 66 -29 94 -28
165 1 85 24 170 62 228 l15 23 50 -56 c27 -31 66 -65 87 -75z m495 80 c0 -36
-29 -33 -33 3 -3 23 0 28 15 25 12 -2 18 -12 18 -28z m-2310 -44 c37 -8 56
-21 70 -48 24 -49 19 -91 -14 -127 -34 -36 -57 -35 -126 4 -57 32 -69 59 -52
109 7 22 20 43 28 46 8 4 23 12 34 18 11 6 27 8 35 5 8 -3 20 -6 25 -7z m2375
-5 c0 -5 2 -15 5 -23 3 -7 -1 -22 -9 -33 -14 -19 -15 -17 -16 23 0 23 5 42 10
42 6 0 10 -4 10 -9z m-210 -175 c0 -95 -24 -119 -35 -37 -8 57 0 91 21 91 10
0 14 -14 14 -54z m-1766 -211 c22 -19 31 -37 35 -73 9 -68 3 -88 -33 -127 -26
-27 -41 -35 -69 -35 -51 0 -84 18 -102 55 -58 124 72 263 169 180z m1788 -262
c35 -34 36 -51 1 -55 -17 -2 -32 -12 -40 -28 l-13 -25 -6 23 c-4 12 -10 22
-15 22 -5 0 -9 14 -9 30 0 19 5 30 14 30 8 0 16 7 20 15 8 21 16 19 48 -12z
m-116 -21 c-9 -8 -26 10 -26 26 1 15 2 15 15 -2 8 -11 13 -21 11 -24z m-1226
18 c0 -5 8 -10 18 -10 11 0 27 -16 41 -40 12 -22 20 -40 16 -40 -8 0 25 -51
52 -79 13 -13 29 -45 37 -70 8 -25 24 -65 35 -88 23 -47 27 -91 10 -138 -10
-27 -15 -30 -45 -27 -28 3 -38 -1 -54 -21 -14 -17 -26 -23 -40 -20 -11 3 -26
1 -33 -5 -6 -6 -33 -13 -58 -17 -39 -6 -50 -3 -73 17 -29 24 -46 86 -27 97 16
10 39 149 31 185 -4 17 -17 47 -28 66 -27 43 -27 60 -3 86 10 12 22 36 26 55
4 19 12 40 17 47 12 14 78 16 78 2z m-1256 -118 c9 -18 16 -53 16 -78 0 -38
-3 -46 -25 -54 -54 -21 -82 0 -110 81 -19 52 -13 73 26 92 39 19 72 5 93 -41z
m2415 -77 c0 -23 -2 -26 -9 -15 -5 8 -9 33 -9 55 1 35 2 37 9 15 4 -14 8 -38
9 -55z m97 -24 c-1 -56 3 -75 21 -99 18 -24 21 -38 16 -88 -4 -50 -1 -67 21
-108 22 -44 24 -54 14 -95 -8 -37 -7 -54 7 -91 9 -25 21 -75 25 -112 5 -47 15
-80 34 -108 21 -32 24 -44 16 -60 -16 -29 -12 -72 10 -113 24 -44 25 -56 5
-93 -23 -45 -17 -134 10 -134 16 0 26 -61 18 -118 -5 -36 -3 -47 12 -58 9 -7
15 -19 12 -27 -3 -8 2 -25 11 -38 9 -14 17 -45 18 -71 1 -39 7 -54 38 -88 34
-38 35 -42 21 -64 -11 -16 -14 -40 -11 -79 3 -47 9 -62 39 -93 30 -32 34 -42
30 -74 -5 -34 -2 -40 50 -85 l55 -49 -19 -24 c-20 -26 -25 -52 -9 -52 5 0 7
-7 3 -16 -4 -10 10 -32 41 -63 l46 -47 -25 -22 c-29 -25 -34 -62 -7 -62 14 0
15 -2 3 -9 -12 -8 -8 -16 22 -44 41 -37 45 -55 20 -99 -14 -23 -15 -32 -5 -35
6 -3 12 -12 12 -21 0 -15 -2 -15 -10 -2 -5 8 -10 11 -10 5 0 -5 16 -26 36 -46
34 -35 36 -39 25 -70 -19 -55 -14 -103 15 -132 l25 -25 -20 -41 c-25 -47 -27
-89 -6 -97 21 -9 19 -25 -2 -17 -14 5 -12 0 6 -20 16 -17 35 -27 53 -27 32 0
31 1 17 -59 -7 -31 -6 -47 2 -57 6 -7 8 -17 5 -22 -8 -13 13 -29 47 -37 21 -6
27 -12 22 -24 -19 -48 -29 -103 -20 -109 6 -4 10 -16 10 -27 0 -13 12 -25 32
-35 30 -14 45 -40 24 -40 -5 0 -13 -19 -19 -42 -9 -35 -8 -44 3 -51 8 -4 15
-15 15 -23 0 -8 -4 -12 -10 -9 -18 11 -11 -11 11 -34 17 -18 19 -25 9 -31 -7
-4 -11 -17 -8 -27 3 -11 -1 -28 -8 -38 -20 -27 -17 -40 4 -19 16 17 17 15 23
-31 4 -34 12 -53 29 -67 l24 -19 -50 2 c-33 1 -66 12 -101 31 l-53 29 -59 -22
c-93 -33 -171 -110 -171 -168 0 -38 -59 -44 -410 -43 -250 1 -326 5 -331 14
-3 7 -14 27 -23 45 -23 45 -20 74 14 111 17 18 30 37 30 42 0 18 -22 66 -47
102 -18 27 -23 41 -15 50 5 7 17 36 27 64 18 55 9 104 -20 104 -20 0 -20 38 1
89 8 21 14 54 12 73 -3 29 -7 33 -35 36 -43 4 -43 30 0 57 62 39 63 115 2 135
-19 6 -35 17 -35 24 0 7 16 31 35 53 23 27 35 51 35 70 -1 29 -20 63 -37 63
-5 0 -20 12 -34 26 -13 14 -34 30 -46 35 -13 5 -23 15 -23 24 0 18 21 20 37 4
8 -8 17 2 32 36 12 26 21 55 21 64 0 26 -29 61 -50 61 -20 0 -60 44 -60 66 0
16 18 18 40 4 24 -15 70 36 70 77 0 35 -29 73 -56 73 -18 0 -53 38 -54 58 0
10 4 10 19 0 35 -22 67 3 75 58 10 77 7 97 -20 125 l-25 26 24 -4 c31 -6 82
53 90 104 6 36 -15 115 -32 121 -11 4 -3 42 14 62 33 39 47 83 41 125 -5 33
-3 44 8 48 31 12 49 67 43 131 -5 58 -4 62 29 98 33 37 34 40 34 126 1 61 5
93 15 106 8 11 15 34 15 50 0 17 9 45 20 61 23 34 26 92 8 143 -11 28 -11 36
0 40 19 6 42 57 42 95 0 19 -14 60 -31 92 -28 53 -30 61 -20 101 6 23 11 54
11 69 0 14 5 33 11 43 9 14 8 27 -6 56 -14 30 -16 42 -7 55 39 54 54 95 48
135 -14 105 -11 125 22 159 18 18 32 41 32 50 0 9 4 17 8 17 5 0 8 -31 8 -69z
m-150 29 c-1 -27 -49 -90 -68 -90 -18 0 -6 32 27 68 19 22 32 42 28 46 -3 3
-2 6 4 6 6 0 10 -13 9 -30z m313 12 c5 -10 11 -31 13 -47 3 -24 -1 -28 -24
-29 -15 -1 -36 -10 -48 -21 -18 -16 -23 -17 -31 -5 -30 46 -18 105 23 113 46
9 57 7 67 -11z m-319 -112 c0 -5 -5 -10 -11 -10 -5 0 -7 5 -4 10 3 6 8 10 11
10 2 0 4 -4 4 -10z m370 -104 c7 -14 10 -36 6 -50 -5 -21 -13 -25 -48 -28 -36
-3 -43 -7 -48 -28 -6 -24 -6 -24 -15 -5 -4 11 -10 41 -12 67 l-4 47 38 6 c21
4 43 8 48 10 19 6 22 5 35 -19z m-395 -16 c16 -18 17 -24 5 -60 -18 -54 -40
-37 -40 31 0 53 7 60 35 29z m-88 -32 c-3 -7 -5 -2 -5 12 0 14 2 19 5 13 2 -7
2 -19 0 -25z m143 -7 c-6 -12 -15 -21 -21 -21 -10 0 -5 13 14 38 15 19 20 7 7
-17z m363 -173 c26 -31 21 -43 -25 -56 -24 -7 -48 -15 -54 -18 -14 -6 -31 42
-26 73 6 37 72 38 105 1z m-404 -7 c21 -13 -3 -41 -35 -41 -12 0 -26 -4 -29
-10 -12 -20 -25 -10 -25 19 0 16 6 32 13 34 20 9 61 7 76 -2z m-14 -131 c3 -5
2 -10 -4 -10 -5 0 -13 5 -16 10 -3 6 -2 10 4 10 5 0 13 -4 16 -10z m475 -59
c19 -46 10 -65 -33 -72 -48 -8 -54 -15 -34 -37 10 -10 17 -25 17 -33 0 -23
-52 37 -55 63 -2 14 -9 34 -16 45 -19 31 -5 51 38 56 21 2 45 4 54 5 10 1 22
-10 29 -27z m-595 -15 c12 -12 12 -19 -2 -46 -13 -28 -17 -30 -25 -16 -9 16
-2 76 9 76 2 0 11 -6 18 -14z m75 -25 c0 -13 -29 -35 -37 -28 -7 8 15 37 28
37 5 0 9 -4 9 -9z m83 -35 c9 -28 2 -76 -12 -76 -4 0 -13 11 -19 25 -7 15 -20
25 -32 25 -27 0 -25 6 8 35 32 29 43 28 55 -9z m-113 -72 c0 -8 -4 -12 -10 -9
-5 3 -10 10 -10 16 0 5 5 9 10 9 6 0 10 -7 10 -16z m-1748 -16 c25 -14 48 -40
43 -48 -1 -3 1 -29 5 -58 l7 -53 -31 7 c-17 3 -32 10 -34 15 -2 5 -24 9 -48 9
-39 0 -46 3 -54 26 -15 38 -13 49 16 83 28 33 59 39 96 19z m2340 -40 c7 -43
-6 -83 -27 -81 -11 1 -26 -2 -35 -7 -24 -12 -55 4 -56 31 0 13 -4 35 -8 48 -7
21 -6 23 12 19 11 -3 36 -2 54 2 51 12 55 11 60 -12z m-702 -8 c9 -16 15 -18
36 -10 49 19 54 9 32 -62 -10 -35 -14 -39 -36 -33 -72 18 -82 18 -82 0 0 -14
-3 -15 -15 -5 -16 13 -21 50 -7 50 5 0 17 18 27 40 20 45 29 49 45 20z m-1563
-62 c-2 -13 -4 -5 -4 17 -1 22 1 32 4 23 2 -10 2 -28 0 -40z m1747 10 c18 -25
21 -64 7 -73 -5 -3 -12 -1 -16 5 -3 5 -15 10 -26 10 -21 0 -26 29 -9 61 14 25
25 24 44 -3z m477 -148 c44 0 47 -1 53 -32 8 -39 3 -43 -57 -56 l-48 -10 -16
33 c-18 38 -11 97 10 76 6 -6 32 -11 58 -11z m-633 -40 c4 -48 -17 -76 -46
-61 -31 17 -49 13 -55 -10 -3 -12 -10 -18 -15 -15 -16 9 -20 55 -9 91 10 32
10 33 66 31 l56 -2 3 -34z m82 -44 c0 -24 -16 -43 -26 -33 -8 7 7 57 17 57 5
0 9 -11 9 -24z m545 -56 c3 -5 2 -10 -4 -10 -5 0 -13 5 -16 10 -3 6 -2 10 4
10 5 0 13 -4 16 -10z m94 -81 c15 -44 5 -79 -24 -79 -13 0 -30 -3 -39 -6 -23
-9 -68 44 -64 75 3 23 7 26 39 23 21 -2 40 1 44 7 12 21 33 11 44 -20z m-755
-34 c4 -20 1 -37 -8 -50 -14 -19 -15 -19 -33 -2 -27 24 -53 22 -53 -4 0 -36
-25 -15 -28 24 -5 53 11 75 56 79 44 4 58 -6 66 -47z m53 -7 c-3 -7 -5 -2 -5
12 0 14 2 19 5 13 2 -7 2 -19 0 -25z m83 -4 c0 -16 -16 -19 -25 -4 -8 13 4 32
16 25 5 -4 9 -13 9 -21z m590 -94 c0 -5 -4 -10 -9 -10 -6 0 -13 5 -16 10 -3 6
1 10 9 10 9 0 16 -4 16 -10z m60 -80 c0 -47 -3 -60 -15 -60 -8 0 -15 -5 -15
-11 0 -8 -4 -8 -14 1 -8 6 -13 17 -10 24 2 6 -7 23 -21 36 -34 32 -31 42 9 35
28 -6 36 -3 45 14 7 12 14 21 16 21 3 0 5 -27 5 -60z m-746 21 c-5 -23 -2 -29
15 -34 13 -3 21 -13 21 -26 0 -28 -18 -27 -30 2 -5 13 -9 16 -10 7 -1 -10 -4
-8 -10 6 -9 23 -2 74 11 74 5 0 6 -13 3 -29z m-79 -17 c24 -22 27 -30 19 -52
-10 -30 -44 -43 -44 -18 0 20 -34 21 -50 1 -7 -8 -16 -15 -21 -15 -10 0 -12
70 -3 94 10 26 67 20 99 -10z m881 -233 c-5 -34 -19 -51 -42 -51 -18 0 -74 68
-74 90 0 23 15 27 24 5 8 -22 44 -18 57 7 11 21 12 21 26 2 9 -12 12 -32 9
-53z m-921 51 c-2 -2 5 -24 15 -48 19 -43 16 -56 -7 -33 -8 8 -16 4 -28 -15
-25 -38 -35 -32 -35 20 0 55 14 83 40 81 10 -1 17 -3 15 -5z m87 -29 c-10 -4
-10 -8 -1 -19 7 -8 9 -18 5 -21 -8 -8 -26 16 -26 35 0 6 8 12 18 11 11 0 12
-2 4 -6z m828 -114 c0 -4 -7 -6 -15 -3 -8 4 -15 10 -15 15 0 4 7 6 15 3 8 -4
15 -10 15 -15z m87 -71 c-3 -8 -6 -5 -6 6 -1 11 2 17 5 13 3 -3 4 -12 1 -19z
m-41 -18 c0 -23 -1 -23 -28 -9 -17 9 -18 13 -7 20 23 14 35 10 35 -11z m-997
-47 c0 -42 -3 -52 -9 -38 -12 28 -12 95 0 95 6 0 10 -25 9 -57z m111 17 c0
-16 -4 -30 -9 -30 -12 0 -24 37 -16 50 12 20 25 10 25 -20z m-70 -50 c0 -5 -4
-10 -10 -10 -5 0 -10 5 -10 10 0 6 5 10 10 10 6 0 10 -4 10 -10z m1009 -120
c0 -9 -4 -8 -9 5 -5 11 -9 27 -9 35 0 9 4 8 9 -5 5 -11 9 -27 9 -35z m-1089
-34 c-5 -13 -4 -29 1 -37 13 -20 11 -29 -6 -29 -8 0 -15 -7 -15 -15 0 -27 -17
-15 -24 16 -11 57 -8 92 9 86 8 -4 17 -2 20 4 12 18 24 -2 15 -25z m-905 -115
c42 -25 75 -77 75 -120 0 -20 3 -45 6 -56 6 -25 -35 -53 -57 -39 -8 4 -42 8
-76 9 -45 0 -67 5 -82 19 -11 10 -37 19 -59 20 -56 3 -128 58 -116 89 3 8 26
25 52 38 26 12 56 26 66 32 21 10 97 24 136 25 14 0 39 -7 55 -17z m2063 -6
c-3 -3 -9 2 -12 12 -6 14 -5 15 5 6 7 -7 10 -15 7 -18z m-1254 -123 c6 -69 -8
-78 -19 -12 -6 33 1 88 10 78 1 -2 5 -31 9 -66z m91 -52 c3 -5 1 -10 -4 -10
-6 0 -11 5 -11 10 0 6 2 10 4 10 3 0 8 -4 11 -10z m-45 -40 c0 -5 -2 -10 -4
-10 -3 0 -8 5 -11 10 -3 6 -1 10 4 10 6 0 11 -4 11 -10z m64 -39 c-6 -6 -24
19 -24 34 1 6 7 1 15 -9 8 -11 12 -22 9 -25z m-124 -21 c0 -5 13 -10 29 -10
35 0 46 -29 29 -76 -11 -30 -11 -31 -47 -18 -48 17 -61 17 -61 -2 0 -8 -4 -12
-10 -9 -15 9 -12 62 5 95 15 28 55 43 55 20z m147 -22 c-3 -7 -5 -2 -5 12 0
14 2 19 5 13 2 -7 2 -19 0 -25z m0 -170 l25 -37 -24 -31 c-20 -27 -23 -44 -24
-123 -1 -51 -6 -111 -12 -135 -6 -26 -7 -57 -1 -80 5 -20 6 -64 3 -97 -5 -44
-2 -71 10 -99 10 -24 13 -44 7 -54 -19 -39 -20 -84 -2 -143 18 -56 18 -63 3
-107 -13 -39 -14 -57 -4 -114 16 -94 15 -153 -3 -168 -19 -16 -346 -9 -387 8
-20 8 -31 23 -41 59 l-14 48 33 18 c18 9 39 27 45 38 11 22 8 119 -5 150 -5
12 2 22 27 36 45 27 77 94 77 160 0 34 5 55 16 64 32 26 57 93 58 154 1 42 6
65 18 77 28 28 48 87 48 140 0 34 4 50 15 55 23 8 43 53 51 111 5 40 3 54 -10
67 -19 20 -21 36 -3 29 8 -3 25 4 38 15 16 13 25 16 28 8 2 -7 14 -29 28 -49z
m-216 -14 c9 -11 22 -14 41 -10 27 5 28 4 28 -32 0 -52 -20 -78 -48 -63 -11 6
-35 11 -52 11 -25 0 -31 -4 -26 -15 3 -8 0 -15 -6 -15 -16 0 -4 84 16 115 19
29 29 31 47 9z m-2381 -31 c17 -30 21 -48 17 -83 -11 -92 -43 -123 -82 -80
-25 28 -23 95 7 173 14 37 32 34 58 -10z m2689 -117 c16 -19 -40 -61 -57 -44
-13 13 -16 41 -5 51 11 12 50 7 62 -7z m-371 -57 c18 -13 34 -18 50 -14 23 6
24 4 17 -32 -3 -21 -12 -43 -18 -50 -16 -16 -97 -5 -97 14 0 7 -7 16 -15 19
-8 4 -15 13 -15 21 0 8 5 11 10 8 6 -3 10 2 10 12 0 17 17 43 28 43 2 0 16 -9
30 -21z m1502 -74 c0 -8 -4 -15 -10 -15 -5 0 -10 7 -10 15 0 8 5 15 10 15 6 0
10 -7 10 -15z m-1100 -54 c0 -29 -50 -72 -79 -69 -22 3 -26 9 -29 41 -3 37 -3
38 32 35 19 -1 38 1 42 5 14 14 34 7 34 -12z m-350 -32 c0 -6 -4 -7 -10 -4 -5
3 -10 11 -10 16 0 6 5 7 10 4 6 -3 10 -11 10 -16z m-102 -61 c2 -4 15 -8 29
-8 24 0 25 -2 20 -37 -4 -20 -13 -43 -21 -51 -13 -13 -17 -13 -31 2 -9 9 -27
16 -41 16 -15 0 -24 6 -24 16 0 8 -5 12 -10 9 -21 -13 -20 24 1 49 17 20 28
24 48 19 14 -3 28 -10 29 -15z m1656 -17 c17 -18 16 -19 -7 -17 -17 1 -23 6
-19 19 5 21 5 21 26 -2z m-1787 -48 c-3 -10 -5 -2 -5 17 0 19 2 27 5 18 2 -10
2 -26 0 -35z m1747 22 c3 -9 0 -15 -9 -15 -9 0 -12 6 -9 15 4 8 7 15 9 15 2 0
5 -7 9 -15z m36 -45 c0 -5 -2 -10 -4 -10 -3 0 -8 5 -11 10 -3 6 -1 10 4 10 6
0 11 -4 11 -10z m-1210 -25 c0 -34 -33 -65 -69 -65 -57 0 -45 76 13 83 17 2
37 5 44 5 7 1 12 -9 12 -23z m1314 -29 c-6 -16 -24 -13 -24 5 0 6 5 7 10 4 6
-3 10 -1 10 6 0 7 2 10 5 7 3 -3 3 -13 -1 -22z m-3730 -108 c13 -24 27 -54 31
-66 4 -13 20 -43 36 -66 15 -24 31 -61 35 -84 5 -35 3 -44 -19 -66 -50 -50
-128 -22 -169 59 -12 22 -34 59 -51 83 l-30 42 10 92 c9 77 14 95 34 111 23
18 23 18 61 -22 20 -23 48 -60 62 -83z m2006 96 c0 -8 -4 -12 -10 -9 -5 3 -10
13 -10 21 0 8 5 12 10 9 6 -3 10 -13 10 -21z m-110 -49 c0 4 6 2 14 -4 8 -6
20 -10 27 -9 19 4 12 -62 -8 -85 -15 -16 -17 -16 -30 3 -19 26 -48 25 -67 -2
-9 -12 -16 -20 -16 -16 0 3 -3 13 -6 22 -4 10 -1 16 9 16 10 0 13 8 9 26 -6
33 34 70 55 52 7 -6 13 -7 13 -3z m1771 -37 c-8 -9 -17 -15 -20 -13 -2 3 1 11
7 17 7 7 12 21 13 33 0 19 1 19 8 1 5 -13 2 -26 -8 -38z m-1851 -9 c0 -11 -4
-17 -10 -14 -5 3 -10 13 -10 21 0 8 5 14 10 14 6 0 10 -9 10 -21z m1823 -8 c3
-14 1 -18 -9 -14 -8 3 -14 14 -14 25 0 23 16 16 23 -11z m-1876 -3 c-3 -8 -6
-5 -6 6 -1 11 2 17 5 13 3 -3 4 -12 1 -19z m671 -31 c10 -53 -38 -95 -92 -81
-52 13 -41 51 23 84 43 22 65 21 69 -3z m1242 8 c7 -9 8 -15 2 -15 -5 0 -12 7
-16 15 -3 8 -4 15 -2 15 2 0 9 -7 16 -15z m-1823 -77 c-3 -8 -6 -5 -6 6 -1 11
2 17 5 13 3 -3 4 -12 1 -19z m40 -25 c-3 -10 -5 -4 -5 12 0 17 2 24 5 18 2 -7
2 -21 0 -30z m1852 -29 c25 -32 27 -48 5 -40 -9 4 -28 -1 -41 -10 -23 -15 -25
-15 -19 3 3 10 8 30 12 46 8 34 17 34 43 1z m-1892 -72 c4 -36 2 -52 -6 -52
-6 0 -11 9 -11 20 0 22 -35 45 -52 34 -6 -4 1 9 17 30 16 21 32 33 37 28 5 -5
11 -32 15 -60z m1823 32 c0 -8 -5 -12 -10 -9 -6 4 -8 11 -5 16 9 14 15 11 15
-7z m-1236 -57 c15 -43 -2 -51 -57 -28 -53 23 -61 47 -19 54 51 8 66 3 76 -26z
m-737 -29 c-3 -8 -6 -5 -6 6 -1 11 2 17 5 13 3 -3 4 -12 1 -19z m109 -61 c3
-31 1 -37 -6 -22 -10 24 -13 81 -3 72 4 -4 8 -26 9 -50z m1890 -64 c-10 -10
-19 5 -10 18 6 11 8 11 12 0 2 -7 1 -15 -2 -18z m-1279 -35 c18 -36 7 -60 -25
-56 -32 4 -47 28 -38 62 9 35 45 32 63 -6z m-727 8 c0 -7 -103 -67 -107 -62
-8 8 8 27 41 47 27 16 66 26 66 15z m2117 -20 c26 -29 43 -60 43 -77 0 -7 -13
6 -29 29 -16 22 -34 43 -40 47 -13 7 -15 25 -3 25 5 0 18 -11 29 -24z m112
-136 l-1 -35 -13 35 c-7 19 -14 46 -14 60 l0 25 14 -25 c8 -14 14 -41 14 -60z
m-2071 28 c0 -7 4 -31 8 -52 5 -26 4 -37 -3 -33 -6 4 -13 19 -16 34 -3 16 -9
36 -12 46 -5 11 -2 17 7 17 8 0 15 -6 16 -12z m-518 -33 c11 -13 8 -13 -19 -4
-35 12 -40 19 -12 19 10 0 24 -7 31 -15z m170 -25 c0 -31 -3 -38 -15 -34 -8 4
-17 -1 -21 -9 -7 -19 -44 -10 -44 10 0 10 7 14 20 10 24 -6 50 17 50 44 0 10
2 19 5 19 3 0 5 -18 5 -40z m2546 5 c-11 -8 -25 -15 -30 -15 -6 0 -2 7 8 15
11 8 25 15 30 15 6 0 2 -7 -8 -15z m-2376 -55 c0 -5 -9 -10 -19 -10 -11 0 -23
5 -26 10 -4 6 5 10 19 10 14 0 26 -4 26 -10z m1940 1 c0 -9 -50 -17 -163 -24
-54 -3 -74 3 -63 21 7 11 226 15 226 3z m51 -2 c-16 -6 -28 -6 -35 1 -7 7 1
10 25 9 32 0 33 -1 10 -10z m-341 -9 c0 -5 -17 -10 -37 -10 -28 0 -34 3 -23
10 20 13 60 13 60 0z m335 -20 c15 -6 8 -9 -29 -9 -66 -1 -54 -10 19 -15 39
-3 69 1 87 10 37 19 42 18 24 -8 -9 -12 -16 -32 -17 -43 -1 -48 -184 -141
-424 -215 -140 -43 -309 -67 -525 -74 -168 -6 -264 2 -249 20 6 8 22 14 35 14
12 0 26 5 29 10 3 6 45 10 93 10 49 0 114 7 145 15 32 8 86 17 120 18 34 2 75
9 90 15 16 7 35 12 43 12 8 0 14 4 14 9 0 10 -49 21 -97 21 -55 0 -73 15 -73
60 0 31 -4 40 -17 41 -11 0 -13 3 -5 6 6 2 12 13 12 24 0 19 -14 20 -67 4 -7
-2 -15 0 -18 5 -4 6 2 10 12 10 10 0 26 7 36 14 14 11 26 12 65 2 39 -11 53
-10 82 2 25 11 67 15 148 13 61 0 112 3 112 7 0 5 33 9 73 10 104 3 241 12
246 18 6 5 12 4 36 -6z m254 -114 c-9 -8 -10 -7 -5 7 3 10 7 31 8 45 1 22 2
21 5 -7 3 -19 -1 -38 -8 -45z m-2797 32 c6 -13 10 -39 9 -58 -3 -35 -19 -65
-29 -55 -3 3 -11 0 -19 -7 -16 -13 -63 7 -63 27 0 7 -9 24 -21 39 -11 14 -16
26 -10 26 6 0 11 7 11 15 0 20 29 34 72 35 29 0 40 -5 50 -22z m433 -18 c3 -5
1 -10 -4 -10 -6 0 -11 5 -11 10 0 6 2 10 4 10 3 0 8 -4 11 -10z m1305 -10 c0
-13 -20 -13 -40 0 -12 8 -9 10 13 10 15 0 27 -4 27 -10z m-1189 -85 c34 -11
38 -14 18 -14 -28 -1 -119 54 -119 72 0 6 13 -2 29 -17 16 -15 48 -34 72 -41z
m84 35 c3 -5 -3 -10 -15 -10 -12 0 -18 5 -15 10 3 6 10 10 15 10 5 0 12 -4 15
-10z m-952 -575 c26 -2 35 -15 40 -59 7 -51 -27 -90 -70 -80 -81 17 -102 41
-80 93 20 47 39 63 67 55 14 -4 33 -8 43 -9z"/>
<path d="M5485 5340 c-89 -9 -141 -26 -150 -48 -15 -37 -17 -180 -6 -320 12
-140 11 -150 -9 -207 -17 -49 -19 -72 -14 -132 6 -69 5 -75 -21 -113 l-28 -40
3 -277 c4 -382 -11 -533 -63 -654 -10 -23 -16 -66 -16 -120 0 -46 0 -89 0 -96
-1 -6 -14 -14 -31 -18 -27 -6 -30 -10 -30 -45 0 -21 6 -43 15 -50 8 -7 15 -18
15 -26 0 -7 16 -21 35 -30 42 -20 45 -51 4 -46 -16 2 -33 -6 -49 -23 -13 -14
-18 -25 -12 -25 7 0 12 -7 12 -15 0 -9 11 -20 24 -26 20 -10 31 -8 63 12 21
13 51 29 67 34 38 13 45 39 41 149 -2 47 1 102 7 123 6 21 14 90 18 153 10
129 22 211 40 255 6 17 16 59 20 95 15 112 27 173 44 229 9 30 16 83 16 118 0
48 4 65 15 69 19 8 55 -31 55 -58 0 -24 6 -23 35 8 23 25 35 62 18 51 -13 -8
-2 95 12 118 7 11 15 34 18 52 8 39 -17 172 -39 214 -8 17 -19 52 -24 77 -5
26 -14 67 -19 92 -17 74 -12 150 13 250 49 189 51 282 8 278 -9 -1 -48 -4 -87
-8z m-47 -1035 c-2 -2 -12 -5 -22 -7 -28 -5 -30 18 -4 44 l23 23 3 -28 c2 -16
2 -30 0 -32z"/>
<path d="M5800 3611 c0 -22 16 -36 24 -22 8 12 -3 41 -15 41 -5 0 -9 -9 -9
-19z"/>
<path d="M5812 3528 c-18 -18 -14 -59 9 -98 20 -32 22 -33 35 -15 17 23 18 62
1 94 -15 29 -29 35 -45 19z"/>
<path d="M5853 3343 c-17 -6 -16 -73 1 -95 24 -32 46 -22 46 21 0 41 -26 82
-47 74z"/>
<path d="M5905 3119 c-9 -38 12 -91 33 -87 24 5 33 56 16 89 -19 38 -41 37
-49 -2z"/>
<path d="M5274 2986 c-7 -30 4 -68 19 -63 19 6 30 56 17 72 -18 21 -29 18 -36
-9z"/>
<path d="M5936 2937 c-9 -36 -7 -55 10 -71 20 -21 31 -20 37 3 5 20 -15 75
-31 85 -5 3 -12 -4 -16 -17z"/>
<path d="M5256 2812 c-3 -5 -6 -25 -8 -45 -2 -39 21 -75 41 -63 12 8 15 74 5
100 -7 17 -29 22 -38 8z"/>
<path d="M4922 2728 c5 -15 28 -18 29 -3 0 6 -7 12 -17 13 -10 3 -15 -1 -12
-10z"/>
<path d="M5246 2614 c-11 -28 -6 -61 10 -75 26 -22 42 16 28 69 -7 25 -29 29
-38 6z"/>
<path d="M6045 2550 c3 -5 8 -10 11 -10 2 0 4 5 4 10 0 6 -5 10 -11 10 -5 0
-7 -4 -4 -10z"/>
<path d="M6065 2477 c-7 -16 22 -87 34 -87 14 0 23 37 16 60 -9 27 -43 46 -50
27z"/>
<path d="M5576 1217 c-18 -13 -18 -14 -1 -21 22 -8 37 4 26 22 -6 9 -11 9 -25
-1z"/>
<path d="M5280 1208 c0 -9 1 -9 52 -12 20 -1 35 1 33 5 -7 10 -85 16 -85 7z"/>
</g>
</svg>
